# xmcd
#
# Track frame offsets:
#	150
#	19200
#	34229
#	53149
#	64527
#	77460
#	93604
#	106004
#	121265
#	138181
#	158540
#	171556
#
# Disc length: 2469 seconds
#
# Revision: 0
# Processed by: cddbd v1.4PL0 Copyright (c) Steve Scherf et al.
# Submitted via: dBpowerAMP V4.0
#
DISCID=9009a30c
DTITLE=The Hidden Stars - Country Christmas in Nashville
DYEAR=1900
DGENRE=
TTITLE0=Deck the Halls
TTITLE1=O Little Town of Bethlehem
TTITLE2=Silver Bells
TTITLE3=Jingle Bells
TTITLE4=It Came Upon a Midnight Clear
TTITLE5=Away in a Manger
TTITLE6=Carol of the Bells
TTITLE7=The First Noel
TTITLE8=O Holy Night
TTITLE9=Silent Night
TTITLE10=Hark! The Herald Angels Sing
TTITLE11=Joy to the World
EXTD=
EXTT0=
EXTT1=
EXTT2=
EXTT3=
EXTT4=
EXTT5=
EXTT6=
EXTT7=
EXTT8=
EXTT9=
EXTT10=
EXTT11=
PLAYORDER=
